<svg xmlns="http://www.w3.org/2000/svg" width="777.0083" height="172.6204" viewBox="0 0 777.0083 172.6204"><g id="Layer_2" data-name="Layer 2"><g id="Layer_1-2" data-name="Layer 1"><path d="M776.78,44.3405a6.9707,6.9707,0,0,0-4.44-4.83c-18.68-6.59-41.8-12.74-79.81-21.23C614.06.7505,525.83-1.1095,465.64.43c-69.34,1.76-139.3,9.18-182.57,19.36-104.08,24.5-171.65,53.08-210.01,72.74C50.98,103.85,0,132.3205,0,153.8205c0,.2,0,.4.01.6.28,6.12,5.86,6.99,11.77,7.92,4.4.69,10.53,1.46,17.71,2.22,13.13,1.4,35.76,3.42,68.99,5.11,30.64,1.56,72.89,2.95,126.18,2.95,40.95,0,88.42-.83,142.13-3.02,164.07-6.69,231.87-21.01,283.2-40.44,46.52-17.62,102.72-52.8,125.27-78.43A6.9759,6.9759,0,0,0,776.78,44.3405ZM16.48,148.86c2.01-2.78,5.62-6.79,12.16-12.17,11.97-9.85,29.61-20.85,51.01-31.81,11.28-5.78,25.15-12.34,41.8-19.36a.1854.1854,0,0,0,.07-.02c28.32-9.14,78.96-22.6,116.54-16.45,34.26,5.61,79,54,99,77a96.326,96.326,0,0,0,10.18,10.28C157.37,163.1405,44.86,152.7505,16.48,148.86ZM308.06,97.05c-22.88-22-51.96-45.55-71.56-50.88q23.325-6.4948,49.78-12.75c65.84-15.5,195.48-25.89,312.48-15.15-21.23,5.82-48.24,16.88-77.7,37.78-86,61-88.6,78.11-142,87C349.06,148.05,339.26,127.05,308.06,97.05Zm336.97,19.01c-45.3,17.15-104.12,30.23-235.1,37.47,1.66-.8,3.37-1.62,5.13-2.48,29.77-14.49,91.52-62.01,114-77,13-8.67,71.86-48.16,133.55-47.43q13.74,2.3851,26.87,5.32c30.56,6.82,51.26,12.09,67.7,17.27C732.54,72.17,684.43,101.1405,645.03,116.0605Z"/></g></g></svg>